<svg xmlns="http://www.w3.org/2000/svg" xmlns:xlink="http://www.w3.org/1999/xlink" width="30" height="20" viewBox="0 0 30 20">
  <defs>
    <clipPath id="clip-path">
      <rect id="Rectangle_11" data-name="Rectangle 11" width="30" height="20" transform="translate(517 664)" fill="#fff" stroke="#707070" stroke-width="1"/>
    </clipPath>
  </defs>
  <g id="area" transform="translate(-517 -664)" clip-path="url(#clip-path)">
    <g id="isobars" transform="translate(517 664)">
      <g id="Group_9" data-name="Group 9" transform="translate(0 0)">
        <g id="Group_8" data-name="Group 8">
          <path id="Path_24" data-name="Path 24" d="M29.5,0H.5C.224,0,0,.149,0,.333H0V19.667c0,.184.223.333.5.333h29c.276,0,.5-.149.5-.333h0V.333C30,.149,29.777,0,29.5,0ZM1,.667H3.015C3.3,6.871,1.928,11.151,1,13.023ZM1,14.538c1.238-.874,3.363-6.3,3.015-13.871H5C4.955,10.581,3.039,16.121,1,16.9Zm1.5,4.8H1V17.615c3.107-.6,4.958-6.83,5-16.948H7C6.961,14.418,4.658,19.333,2.5,19.333Zm4.535,0c.274-1.46,2.271-2.5,4.461-2.313,1.814.151,3.242,1.1,3.469,2.313Zm21.965,0H15.975C15.7,17.5,13.248,16.166,10.5,16.35c-2.366.158-4.237,1.406-4.475,2.983H4.288C7.262,16.9,7.979,8.235,8,.667h.976c-.5,6.589.085,11.622,4.387,14.734C16.488,17.663,21.47,18.8,29,18.987v.347Zm0-1.014c-7.225-.178-11.974-1.251-14.9-3.37C10.6,12.42,9.4,8.269,9.976.667H11c.034,9.238,1.57,16.839,18,16.993Zm0-1.327C13.46,16.844,12.033,9.846,12,.667h.52C13.095,10.461,18.637,15.5,29,15.659Zm0-2c-9.716-.16-14.921-4.977-15.479-14.326h.487C14.189,6.922,19.425,13.435,29,13.656v1.336Zm0-2C20.072,12.765,15.185,6.6,15.009.667h.5c.2,5.358,5.2,10.779,13.49,10.99Zm0-2C21.335,10.776,16.706,5.695,16.51.667h1C17.716,5.584,22.454,9.151,29,9.325Zm0-2.332C23.032,8.484,18.713,5.2,18.51.667h3C21.719,3.51,24.528,6.449,29,6.655Zm0-2.679C25.144,5.77,22.719,3.185,22.52.667H29Z" transform="translate(0 0)"/>
        </g>
      </g>
      <g id="Group_11" data-name="Group 11" transform="translate(24.5 1)">
        <g id="Group_10" data-name="Group 10">
          <path id="Path_25" data-name="Path 25" d="M18.333,1c-1.1,0-2,.6-2,1.333s.9,1.333,2,1.333,2-.6,2-1.333S19.438,1,18.333,1Zm0,2c-.552,0-1-.3-1-.667s.448-.666,1-.667,1,.3,1,.667S18.886,3,18.333,3Z" transform="translate(-16.333 -1)"/>
        </g>
      </g>
    </g>
  </g>
</svg>
