<svg xmlns="http://www.w3.org/2000/svg" xmlns:xlink="http://www.w3.org/1999/xlink" width="30" height="22" viewBox="0 0 30 22">
  <defs>
    <clipPath id="clip-path">
      <rect id="Rectangle_19" data-name="Rectangle 19" width="30" height="22" transform="translate(504 663)" fill="#fff" stroke="#707070" stroke-width="1"/>
    </clipPath>
  </defs>
  <g id="banheiro" transform="translate(-504 -663)" clip-path="url(#clip-path)">
    <g id="Layer_2" data-name="Layer 2" transform="translate(508 663)">
      <path id="Path_48" data-name="Path 48" d="M18.182,10.746H15.9V9.453h.722A1.678,1.678,0,0,0,18.3,7.777v-5.3h.18a.817.817,0,0,0,.816-.816V.816A.817.817,0,0,0,18.477,0H3.523a.817.817,0,0,0-.816.816v.845a.817.817,0,0,0,.816.816H3.7v5.3A1.678,1.678,0,0,0,5.38,9.453H6.1v1.293H3.818a1.239,1.239,0,1,0,0,2.478h.746v2.721A2.881,2.881,0,0,0,7.391,18.82,8.7,8.7,0,0,0,6.9,21.7a.3.3,0,0,0,.3.3h7.6a.3.3,0,0,0,.3-.3,8.7,8.7,0,0,0-.489-2.879,2.881,2.881,0,0,0,2.827-2.876V13.224h.746a1.239,1.239,0,1,0,0-2.478ZM3.309,1.662V.816A.215.215,0,0,1,3.523.6H18.477a.215.215,0,0,1,.215.215v.845a.215.215,0,0,1-.215.215H3.523A.215.215,0,0,1,3.309,1.662ZM5.38,8.852A1.075,1.075,0,0,1,4.306,7.777v-5.3H17.7v5.3a1.075,1.075,0,0,1-1.074,1.074H15.9V8.495a4.9,4.9,0,0,0-9.8,0v.357ZM6.7,8.495a4.3,4.3,0,0,1,8.594,0v2.252H14.18V8.495a3.18,3.18,0,0,0-6.359,0v2.252H6.7Zm1.719,2.2v-2.2a2.578,2.578,0,0,1,5.156,0v2.2ZM7.509,21.4A8.1,8.1,0,0,1,7.965,19l.063-.178h5.945l.063.177a8.1,8.1,0,0,1,.456,2.4Zm9.326-5.454a2.28,2.28,0,0,1-2.277,2.277H7.442a2.28,2.28,0,0,1-2.277-2.277V13.224h11.67Zm1.347-3.322H3.818a.637.637,0,1,1,0-1.275H18.182a.637.637,0,1,1,0,1.275Z" transform="translate(-1)"/>
      <path id="Path_49" data-name="Path 49" d="M15.21,4.2h1.066a.3.3,0,1,0,0-.6H15.21a.3.3,0,1,0,0,.6Z"/>
    </g>
  </g>
</svg>
