<svg xmlns="http://www.w3.org/2000/svg" xmlns:xlink="http://www.w3.org/1999/xlink" width="55" height="55" viewBox="0 0 55 55">
  <defs>
    <clipPath id="clip-path">
      <rect id="Rectangle_14" data-name="Rectangle 14" width="55" height="55" transform="translate(341 831)" fill="#fff" stroke="#707070" stroke-width="1"/>
    </clipPath>
  </defs>
  <g id="duvida-icon" transform="translate(-341 -831)" clip-path="url(#clip-path)">
    <g id="Out_line" data-name="Out line" transform="translate(341 831)">
      <path id="Path_29" data-name="Path 29" d="M13.394,20H11.576a.916.916,0,0,0,0,1.832h1.818a.916.916,0,0,0,0-1.832Z" transform="translate(2.059 5.65)" fill="#fff"/>
      <path id="Path_30" data-name="Path 30" d="M18.242,21.832H20.06a.916.916,0,0,0,0-1.832H18.242a.916.916,0,0,0,0,1.832Z" transform="translate(4.483 5.65)" fill="#fff"/>
      <path id="Path_31" data-name="Path 31" d="M15.622,24.621a.907.907,0,0,0,1.15.579.918.918,0,0,0,.575-1.159l-.909-2.748a.907.907,0,0,0-1.15-.579.918.918,0,0,0-.575,1.159Z" transform="translate(3.513 5.899)" fill="#fff"/>
      <ellipse id="Ellipse_5" data-name="Ellipse 5" cx="0.909" cy="0.916" rx="0.909" ry="0.916" transform="translate(13.635 27.482)" fill="#fff"/>
      <ellipse id="Ellipse_6" data-name="Ellipse 6" cx="0.909" cy="0.916" rx="0.909" ry="0.916" transform="translate(22.725 27.482)" fill="#fff"/>
      <path id="Path_32" data-name="Path 32" d="M14.909,27.165h1.818a.916.916,0,0,0,0-1.832H14.909a.916.916,0,0,0,0,1.832Z" transform="translate(3.271 7.645)" fill="#fff"/>
      <path id="Path_33" data-name="Path 33" d="M33.015,39.275a13.252,13.252,0,0,0-6.261-2.016,2.734,2.734,0,0,0-.713-.928l-1.315-1.1a9.183,9.183,0,0,0,4.6-6.239h.185a3.668,3.668,0,0,0,1.818-6.836V19.291a4.028,4.028,0,0,0-4.012-4.044h-.1a2.063,2.063,0,0,0-.6-1.458l-.583-.587a8.543,8.543,0,0,0-12.148,0l-2.406,2.424a.219.219,0,0,1-.312,0,2.027,2.027,0,0,0-2.222-.445,2.055,2.055,0,0,0-1.258,1.9v.8a5.593,5.593,0,0,0,1.63,3.965c.088.089.179.173.272.255a3.668,3.668,0,0,0,1.734,6.884h.185a9.185,9.185,0,0,0,4.463,6.16,2.607,2.607,0,0,0-.875,2.076c-.045,0-.091.008-.137.008h-.073A13.35,13.35,0,0,0,1.963,47.408a21.417,21.417,0,0,0-.629,5.151v.246H3.151V52.56a19.564,19.564,0,0,1,.574-4.7,11.539,11.539,0,0,1,4.879-6.9v4.524a.918.918,0,0,0,.4.759.9.9,0,0,0,.847.092l1.209-.488-3.2,4.608L9.35,51.5l5.887-8.476,5.624,3.239a.92.92,0,0,1,.291,1.324L18.5,51.361l1.485,1.058,2.648-3.775a2.761,2.761,0,0,0-.083-3.283l3.922-5.27a2.749,2.749,0,0,0,.463-.982c.167.014.333.033.5.055L25.6,47.174a25.271,25.271,0,0,0-.636,5.632h1.818a23.415,23.415,0,0,1,.589-5.216l.57-2.49,3.048,1.229a.9.9,0,0,0,.847-.092.918.918,0,0,0,.4-.759V40.953a11.539,11.539,0,0,1,4.879,6.9,19.569,19.569,0,0,1,.575,4.707v.246h1.818V52.56a21.412,21.412,0,0,0-.629-5.149A13.364,13.364,0,0,0,33.015,39.275Zm-3.5-12.119V23.492a1.832,1.832,0,0,1,0,3.664Zm-20-10.077a.222.222,0,0,1,.136-.205.219.219,0,0,1,.24.048,2.03,2.03,0,0,0,2.883,0L15.179,14.5a6.735,6.735,0,0,1,9.577,0l.583.587a.231.231,0,0,1,0,.324l-1.015,1.022a.921.921,0,0,0,0,1.3.9.9,0,0,0,1.286,0l.643-.648h1.065a2.2,2.2,0,0,1,2.194,2.211v2.369H28.291a2.7,2.7,0,0,1-1.928-.805l-2.571-2.591a.9.9,0,0,0-1.285,0,11.385,11.385,0,0,1-8.135,3.4H13.261a3.761,3.761,0,0,1-3.746-3.775Zm0,8.245a1.827,1.827,0,0,1,1.818-1.832v3.664A1.827,1.827,0,0,1,9.514,25.324Zm3.636,1.832V23.489l.11,0h1.111a13.166,13.166,0,0,0,8.757-3.306l1.95,1.965a4.5,4.5,0,0,0,2.617,1.3v3.7a7.343,7.343,0,0,1-4.535,6.791,2.712,2.712,0,0,0-3.707.81l-.192.29-.154-.1a2.6,2.6,0,0,0-.544-.279.912.912,0,0,0-.566-.6,7.338,7.338,0,0,1-4.848-6.912Zm1.818,11.909a3.619,3.619,0,0,0,.762-.081l.008.016-1.519,2.3-.243.35-.568-2.482a11.44,11.44,0,0,1,1.488-.1Zm-4.545.912a11.429,11.429,0,0,1,1.2-.435l.859,3.75-2.063.832Zm14.6-.986-3.936,5.289L16.265,41.5l1.278-1.932a.922.922,0,0,0,.057-.918L17,37.446a.769.769,0,0,1,.177-.915.754.754,0,0,1,.923-.063l.91.611a.9.9,0,0,0,1.261-.254l.7-1.052a.9.9,0,0,1,1.338-.2l2.573,2.161a.921.921,0,0,1,.145,1.253Zm3.336,4.3.859-3.75a11.456,11.456,0,0,1,1.2.435v4.147Z" transform="translate(-1.333 2.158)" fill="#fff"/>
      <path id="Path_34" data-name="Path 34" d="M37.18,1.333H34.453A10.442,10.442,0,0,0,25.4,6.6a10.609,10.609,0,0,0-.011,10.53L24.047,21.2a.922.922,0,0,0,.125.825.9.9,0,0,0,.887.368l5.2-.872a10.3,10.3,0,0,0,4.2.885H37.18a10.535,10.535,0,0,0,0-21.07Zm6.107,16.689a8.546,8.546,0,0,1-6.107,2.549H34.453a8.513,8.513,0,0,1-3.687-.831.9.9,0,0,0-.538-.075l-3.98.668,1-3.029a.922.922,0,0,0-.1-.781,8.761,8.761,0,0,1-.268-8.852,8.626,8.626,0,0,1,7.566-4.505H37.18a8.635,8.635,0,0,1,7.978,5.372A8.753,8.753,0,0,1,43.287,18.022Z" transform="translate(6.906 -1.333)" fill="#fff"/>
      <path id="Path_35" data-name="Path 35" d="M33.757,3.643A4.08,4.08,0,0,0,30.841,4.86l-.016.017-.425.451a2.549,2.549,0,0,0,.009,3.586A2.5,2.5,0,0,0,33.967,8.9l.432-.435a.921.921,0,0,0,0-1.3.9.9,0,0,0-1.286,0l-.432.435A.695.695,0,0,1,31.608,7.5a.709.709,0,0,1,.087-.887l.016-.017.423-.449a2.292,2.292,0,0,1,3.259.008,2.336,2.336,0,0,1-.007,3.285l-.987.995a5.325,5.325,0,0,0-1.552,3.775.909.909,0,1,0,1.818,0,3.5,3.5,0,0,1,1.019-2.48l.987-.995a4.178,4.178,0,0,0,.894-4.528,4.123,4.123,0,0,0-3.809-2.565Z" transform="translate(8.966 -0.469)" fill="#fff"/>
      <ellipse id="Ellipse_7" data-name="Ellipse 7" cx="0.909" cy="0.916" rx="0.909" ry="0.916" transform="translate(41.814 15.573)" fill="#fff"/>
    </g>
  </g>
</svg>
