<svg xmlns="http://www.w3.org/2000/svg" xmlns:xlink="http://www.w3.org/1999/xlink" width="40" height="20" viewBox="0 0 40 20">
  <defs>
    <clipPath id="clip-path">
      <rect id="Rectangle_10" data-name="Rectangle 10" width="40" height="20" transform="translate(452 664)" fill="#fff" stroke="#707070" stroke-width="1"/>
    </clipPath>
  </defs>
  <g id="garagem" transform="translate(-452 -664)" clip-path="url(#clip-path)">
    <g id="carro-compacto" transform="translate(459.931 661.931)">
      <path id="Path_23" data-name="Path 23" d="M24.138,13.179a3.164,3.164,0,0,0-.3-1.343c-.02-.105-.043-.211-.071-.318l-2.1-5.2-.014-.047c-.734-2.184-1.777-4.206-4.424-4.206H7.111c-2.712,0-3.67,2.072-4.42,4.194L.5,11.472A3.207,3.207,0,0,0,0,13.179V14.8a3.144,3.144,0,0,0,.086.73A1.271,1.271,0,0,0,0,15.983v4.809a1.277,1.277,0,0,0,1.277,1.277h2.65A1.277,1.277,0,0,0,5.2,20.792v-2.4H19.086v2.4a1.277,1.277,0,0,0,1.277,1.277h2.5a1.277,1.277,0,0,0,1.277-1.277v-4.81a1.278,1.278,0,0,0-.086-.457,3.158,3.158,0,0,0,.086-.73V13.179h0ZM4.247,6.785C5.081,4.429,5.753,3.71,7.111,3.71H17.23c1.348,0,2.1.8,2.861,3.064l1.53,3.1a4.683,4.683,0,0,0-1.627-.288H4.144a4.7,4.7,0,0,0-1.476.235ZM5.561,15.41h-2.8a.912.912,0,0,1,0-1.824h2.8a.912.912,0,0,1,0,1.824Zm9.876-.183h-6.5a.577.577,0,0,1,0-1.155h6.5a.577.577,0,1,1,0,1.155Zm5.865.183h-2.8a.912.912,0,0,1,0-1.824h2.8a.912.912,0,1,1,0,1.824Z"/>
    </g>
  </g>
</svg>
