<svg xmlns="http://www.w3.org/2000/svg" xmlns:xlink="http://www.w3.org/1999/xlink" width="50" height="40" viewBox="0 0 50 40">
  <defs>
    <clipPath id="clip-path">
      <rect id="Rectangle_15" data-name="Rectangle 15" width="50" height="40" transform="translate(1001 834)" fill="#fff" stroke="#707070" stroke-width="1"/>
    </clipPath>
  </defs>
  <g id="platarfoma-digital" transform="translate(-1001 -834)" clip-path="url(#clip-path)">
    <g id="pagina-da-web" transform="translate(1005.355 833.355)">
      <path id="Path_36" data-name="Path 36" d="M9.677,29.032h1.29v1.29H9.677Z" fill="#fff"/>
      <path id="Path_37" data-name="Path 37" d="M4.516,29.032h1.29v1.29H4.516Z" fill="#fff"/>
      <path id="Path_38" data-name="Path 38" d="M7.1,29.032h1.29v1.29H7.1Z" fill="#fff"/>
      <path id="Path_39" data-name="Path 39" d="M37.419,4.516H35.484V2.581A1.938,1.938,0,0,0,33.548.645H7.742A1.938,1.938,0,0,0,5.806,2.581V4.516H3.871A3.229,3.229,0,0,0,.645,7.742V29.677A3.229,3.229,0,0,0,3.871,32.9H15.459a3.683,3.683,0,0,1-1.481,2.581h-1.72A3.229,3.229,0,0,0,9.032,38.71a1.938,1.938,0,0,0,1.935,1.935H30.323a1.938,1.938,0,0,0,1.935-1.935,3.229,3.229,0,0,0-3.226-3.226h-1.72A3.683,3.683,0,0,1,25.831,32.9H37.419a3.229,3.229,0,0,0,3.226-3.226V7.742A3.229,3.229,0,0,0,37.419,4.516Zm-12.258,12.9h6.452v9.032H25.161Zm.519-1.29L27.946,12.5a.538.538,0,0,1,.881,0l2.267,3.627Zm4.241-4.311a1.809,1.809,0,0,0-3.068,0l-2.982,4.771v9.863H17.188l-.55-.991q.146-.313.264-.628l1.808-.46V19.5l-1.808-.46c-.077-.206-.163-.412-.258-.617l.954-1.606-3.446-3.446-1.606.955c-.2-.095-.412-.181-.617-.258l-.46-1.808H7.1V9.677h27.1V26.452H32.9V16.589ZM5.806,26.452H4.516V8.387h1.29ZM7.1,24.5a3.192,3.192,0,0,0,1.935.662,3.226,3.226,0,1,0,0-6.452,3.192,3.192,0,0,0-1.935.662V17.865a4.512,4.512,0,1,1,1.935,8.587H7.1Zm0-2.564a1.935,1.935,0,1,1,1.935,1.935A1.938,1.938,0,0,1,7.1,21.935Zm7.742,0A5.778,5.778,0,0,0,7.1,16.473V13.548h3.37l.386,1.519.341.109a7.083,7.083,0,0,1,1.088.454l.317.164,1.352-.8,2.028,2.028-.8,1.352.165.318a7.1,7.1,0,0,1,.454,1.086l.108.341,1.518.386v2.868l-1.519.386-.108.341a7.1,7.1,0,0,1-.454,1.086l-.159.307.534.963H12.674A5.8,5.8,0,0,0,14.839,21.935ZM35.484,8.387h1.29V26.452h-1.29ZM7.742,1.935H33.548a.646.646,0,0,1,.645.645V8.387H7.1V2.581A.646.646,0,0,1,7.742,1.935ZM30.968,38.71a.646.646,0,0,1-.645.645H10.968a.646.646,0,0,1-.645-.645,1.938,1.938,0,0,1,1.935-1.935H29.032A1.938,1.938,0,0,1,30.968,38.71ZM25.5,35.484H15.787A4.966,4.966,0,0,0,16.75,32.9h7.79A4.972,4.972,0,0,0,25.5,35.484Zm13.852-5.806a1.938,1.938,0,0,1-1.935,1.935H3.871a1.938,1.938,0,0,1-1.935-1.935V7.742A1.938,1.938,0,0,1,3.871,5.806H5.806V7.1H4.516a1.292,1.292,0,0,0-1.29,1.29V26.452a1.292,1.292,0,0,0,1.29,1.29H36.774a1.292,1.292,0,0,0,1.29-1.29V8.387a1.292,1.292,0,0,0-1.29-1.29h-1.29V5.806h1.935a1.938,1.938,0,0,1,1.935,1.935Z" fill="#fff"/>
      <path id="Path_40" data-name="Path 40" d="M12.258,3.226H8.387V7.1h3.871Zm-1.29,2.581H9.677V4.516h1.29Z" fill="#fff"/>
      <path id="Path_41" data-name="Path 41" d="M17.419,3.226H13.548V7.1h3.871Zm-1.29,2.581h-1.29V4.516h1.29Z" fill="#fff"/>
      <path id="Path_42" data-name="Path 42" d="M22.581,3.226H18.71V7.1h3.871ZM21.29,5.806H20V4.516h1.29Z" fill="#fff"/>
      <path id="Path_43" data-name="Path 43" d="M27.742,23.871h1.29v1.29h-1.29Z" fill="#fff"/>
      <path id="Path_44" data-name="Path 44" d="M27.742,18.71h1.29V20h-1.29Z" fill="#fff"/>
      <path id="Path_45" data-name="Path 45" d="M27.742,21.29h1.29v1.29h-1.29Z" fill="#fff"/>
    </g>
  </g>
</svg>
