<svg xmlns="http://www.w3.org/2000/svg" xmlns:xlink="http://www.w3.org/1999/xlink" width="40" height="34" viewBox="0 0 40 34">
  <defs>
    <clipPath id="clip-path">
      <rect id="Rectangle_19" data-name="Rectangle 19" width="40" height="34" transform="translate(858 408)" fill="#fff" stroke="#707070" stroke-width="1"/>
    </clipPath>
  </defs>
  <g id="quem-somos1" transform="translate(-858 -408)" clip-path="url(#clip-path)">
    <g id="quem-somos" transform="translate(861 408)">
      <g id="Group_26" data-name="Group 26">
        <g id="Group_25" data-name="Group 25">
          <rect id="Rectangle_20" data-name="Rectangle 20" width="1.133" height="1.133" transform="translate(11.9 11.333)" fill="#fff"/>
        </g>
      </g>
      <g id="Group_28" data-name="Group 28">
        <g id="Group_27" data-name="Group 27">
          <rect id="Rectangle_21" data-name="Rectangle 21" width="1.133" height="1.133" transform="translate(11.9 13.6)" fill="#fff"/>
        </g>
      </g>
      <g id="Group_30" data-name="Group 30">
        <g id="Group_29" data-name="Group 29">
          <rect id="Rectangle_22" data-name="Rectangle 22" width="1.133" height="1.133" transform="translate(11.9 15.867)" fill="#fff"/>
        </g>
      </g>
      <g id="Group_32" data-name="Group 32">
        <g id="Group_31" data-name="Group 31">
          <rect id="Rectangle_23" data-name="Rectangle 23" width="1.133" height="1.133" transform="translate(11.9 18.133)" fill="#fff"/>
        </g>
      </g>
      <g id="Group_34" data-name="Group 34">
        <g id="Group_33" data-name="Group 33">
          <rect id="Rectangle_24" data-name="Rectangle 24" width="1.133" height="1.133" transform="translate(14.167 11.333)" fill="#fff"/>
        </g>
      </g>
      <g id="Group_36" data-name="Group 36">
        <g id="Group_35" data-name="Group 35">
          <rect id="Rectangle_25" data-name="Rectangle 25" width="1.133" height="1.133" transform="translate(14.167 13.6)" fill="#fff"/>
        </g>
      </g>
      <g id="Group_38" data-name="Group 38">
        <g id="Group_37" data-name="Group 37">
          <rect id="Rectangle_26" data-name="Rectangle 26" width="1.133" height="1.133" transform="translate(14.167 15.867)" fill="#fff"/>
        </g>
      </g>
      <g id="Group_40" data-name="Group 40">
        <g id="Group_39" data-name="Group 39">
          <rect id="Rectangle_27" data-name="Rectangle 27" width="1.133" height="1.133" transform="translate(14.167 18.133)" fill="#fff"/>
        </g>
      </g>
      <g id="Group_42" data-name="Group 42">
        <g id="Group_41" data-name="Group 41">
          <rect id="Rectangle_28" data-name="Rectangle 28" width="1.133" height="1.133" transform="translate(16.433 11.333)" fill="#fff"/>
        </g>
      </g>
      <g id="Group_44" data-name="Group 44">
        <g id="Group_43" data-name="Group 43">
          <rect id="Rectangle_29" data-name="Rectangle 29" width="1.133" height="1.133" transform="translate(16.433 13.6)" fill="#fff"/>
        </g>
      </g>
      <g id="Group_46" data-name="Group 46">
        <g id="Group_45" data-name="Group 45">
          <rect id="Rectangle_30" data-name="Rectangle 30" width="1.133" height="1.133" transform="translate(16.433 15.867)" fill="#fff"/>
        </g>
      </g>
      <g id="Group_48" data-name="Group 48">
        <g id="Group_47" data-name="Group 47">
          <rect id="Rectangle_31" data-name="Rectangle 31" width="1.133" height="1.133" transform="translate(16.433 18.133)" fill="#fff"/>
        </g>
      </g>
      <g id="Group_50" data-name="Group 50">
        <g id="Group_49" data-name="Group 49">
          <rect id="Rectangle_32" data-name="Rectangle 32" width="1.133" height="1.133" transform="translate(18.7 11.333)" fill="#fff"/>
        </g>
      </g>
      <g id="Group_52" data-name="Group 52">
        <g id="Group_51" data-name="Group 51">
          <rect id="Rectangle_33" data-name="Rectangle 33" width="1.133" height="1.133" transform="translate(14.167 9.067)" fill="#fff"/>
        </g>
      </g>
      <g id="Group_54" data-name="Group 54">
        <g id="Group_53" data-name="Group 53">
          <rect id="Rectangle_34" data-name="Rectangle 34" width="1.133" height="1.133" transform="translate(16.433 9.067)" fill="#fff"/>
        </g>
      </g>
      <g id="Group_56" data-name="Group 56">
        <g id="Group_55" data-name="Group 55">
          <rect id="Rectangle_35" data-name="Rectangle 35" width="1.133" height="1.133" transform="translate(18.7 9.067)" fill="#fff"/>
        </g>
      </g>
      <g id="Group_58" data-name="Group 58">
        <g id="Group_57" data-name="Group 57">
          <rect id="Rectangle_36" data-name="Rectangle 36" width="1.133" height="1.133" transform="translate(18.7 13.6)" fill="#fff"/>
        </g>
      </g>
      <g id="Group_60" data-name="Group 60">
        <g id="Group_59" data-name="Group 59">
          <rect id="Rectangle_37" data-name="Rectangle 37" width="1.133" height="1.133" transform="translate(18.7 15.867)" fill="#fff"/>
        </g>
      </g>
      <g id="Group_62" data-name="Group 62">
        <g id="Group_61" data-name="Group 61">
          <rect id="Rectangle_38" data-name="Rectangle 38" width="1.133" height="1.133" transform="translate(18.7 18.133)" fill="#fff"/>
        </g>
      </g>
      <g id="Group_64" data-name="Group 64">
        <g id="Group_63" data-name="Group 63">
          <rect id="Rectangle_39" data-name="Rectangle 39" width="1.133" height="1.133" transform="translate(20.967 11.333)" fill="#fff"/>
        </g>
      </g>
      <g id="Group_66" data-name="Group 66">
        <g id="Group_65" data-name="Group 65">
          <rect id="Rectangle_40" data-name="Rectangle 40" width="1.133" height="1.133" transform="translate(20.967 13.6)" fill="#fff"/>
        </g>
      </g>
      <g id="Group_68" data-name="Group 68">
        <g id="Group_67" data-name="Group 67">
          <rect id="Rectangle_41" data-name="Rectangle 41" width="1.133" height="1.133" transform="translate(20.967 15.867)" fill="#fff"/>
        </g>
      </g>
      <g id="Group_70" data-name="Group 70">
        <g id="Group_69" data-name="Group 69">
          <rect id="Rectangle_42" data-name="Rectangle 42" width="1.133" height="1.133" transform="translate(20.967 18.133)" fill="#fff"/>
        </g>
      </g>
      <g id="Group_72" data-name="Group 72">
        <g id="Group_71" data-name="Group 71">
          <path id="Path_48" data-name="Path 48" d="M33.434,8.5h-8.5V.567A.566.566,0,0,0,24.367,0H9.633a.566.566,0,0,0-.567.566h0V8.5H.567A.566.566,0,0,0,0,9.066H0v20.4a.566.566,0,0,0,.566.567H1.751A3.4,3.4,0,0,0,1.7,30.6v2.833A.566.566,0,0,0,2.266,34H31.733a.566.566,0,0,0,.567-.566h0V30.6a3.385,3.385,0,0,0-.051-.567h1.185A.566.566,0,0,0,34,29.467h0V9.067A.566.566,0,0,0,33.434,8.5ZM24.367,24.367a1.133,1.133,0,1,1-1.133-1.133A1.133,1.133,0,0,1,24.367,24.367Zm-13.6-1.133a1.133,1.133,0,1,1-1.133,1.133A1.133,1.133,0,0,1,10.767,23.233Zm-3.4,9.633H2.833V30.6a2.267,2.267,0,0,1,4.533,0Zm-3.4-6.8A1.133,1.133,0,1,1,5.1,27.2,1.133,1.133,0,0,1,3.967,26.067Zm3.486,2.084a3.416,3.416,0,0,0-.713-.528,2.267,2.267,0,1,0-3.279,0A3.422,3.422,0,0,0,2.16,28.9H1.133V9.633H9.067v13.25a2.236,2.236,0,0,0,.06,3.04A3.41,3.41,0,0,0,7.453,28.151Zm5.581,4.716H8.5V28.9a2.267,2.267,0,0,1,4.533,0Zm6.8,0H14.167V28.9a2.833,2.833,0,1,1,5.667,0ZM15.3,23.233a1.7,1.7,0,1,1,1.7,1.7A1.7,1.7,0,0,1,15.3,23.233Zm5.151,3.718a3.991,3.991,0,0,0-1.626-1.57,2.833,2.833,0,1,0-3.651,0,3.991,3.991,0,0,0-1.626,1.57,3.423,3.423,0,0,0-1.143-1.028A2.25,2.25,0,0,0,10.2,22.18V1.133H23.8V22.18a2.257,2.257,0,0,0-2.206,3.743A3.423,3.423,0,0,0,20.451,26.952ZM25.5,30.6v2.267H20.967V28.9a2.267,2.267,0,1,1,4.533,0Zm5.667,2.267H26.633V30.6a2.267,2.267,0,1,1,4.533,0Zm-3.4-6.8A1.133,1.133,0,1,1,28.9,27.2,1.133,1.133,0,0,1,27.767,26.067Zm5.1,2.833H31.84a3.422,3.422,0,0,0-1.3-1.277,2.267,2.267,0,1,0-3.279,0,3.414,3.414,0,0,0-.713.528,3.409,3.409,0,0,0-1.674-2.228,2.236,2.236,0,0,0,.06-3.04V9.633h7.933V28.9Z" fill="#fff"/>
        </g>
      </g>
      <g id="Group_74" data-name="Group 74">
        <g id="Group_73" data-name="Group 73">
          <rect id="Rectangle_43" data-name="Rectangle 43" width="1.133" height="9.067" transform="translate(26.633 13.033)" fill="#fff"/>
        </g>
      </g>
      <g id="Group_76" data-name="Group 76">
        <g id="Group_75" data-name="Group 75">
          <rect id="Rectangle_44" data-name="Rectangle 44" width="1.133" height="9.067" transform="translate(30.033 13.033)" fill="#fff"/>
        </g>
      </g>
      <g id="Group_78" data-name="Group 78">
        <g id="Group_77" data-name="Group 77">
          <rect id="Rectangle_45" data-name="Rectangle 45" width="1.133" height="9.067" transform="translate(2.833 13.033)" fill="#fff"/>
        </g>
      </g>
      <g id="Group_80" data-name="Group 80">
        <g id="Group_79" data-name="Group 79">
          <rect id="Rectangle_46" data-name="Rectangle 46" width="1.133" height="9.067" transform="translate(6.233 13.033)" fill="#fff"/>
        </g>
      </g>
      <g id="Group_82" data-name="Group 82">
        <g id="Group_81" data-name="Group 81">
          <path id="Path_49" data-name="Path 49" d="M20.4,2.267H13.6a.566.566,0,0,0-.567.566h0V7.367a.566.566,0,0,0,.566.567h6.8a.566.566,0,0,0,.567-.566h0V2.833A.566.566,0,0,0,20.4,2.267ZM19.833,6.8H14.167V3.4h5.667Z" fill="#fff"/>
        </g>
      </g>
    </g>
  </g>
</svg>
