<svg xmlns="http://www.w3.org/2000/svg" xmlns:xlink="http://www.w3.org/1999/xlink" width="40" height="40" viewBox="0 0 40 40">
  <defs>
    <clipPath id="clip-path">
      <rect id="Rectangle_2" data-name="Rectangle 2" width="40" height="40" transform="translate(328 220)" stroke="#707070" stroke-width="1"/>
    </clipPath>
  </defs>
  <g id="seta-esquerda" transform="translate(-328 -220)" clip-path="url(#clip-path)">
    <g id="seta-esquerda-2" data-name="seta-esquerda" transform="translate(328 220)">
      <path id="Path_1" data-name="Path 1" d="M23.5,32.5,11,20,23.5,7.5,27,11l-9,9,9,9Z"/>
      <path id="Path_2" data-name="Path 2" d="M20,2.5A17.392,17.392,0,0,1,37.5,20,17.392,17.392,0,0,1,20,37.5,17.392,17.392,0,0,1,2.5,20,17.392,17.392,0,0,1,20,2.5ZM20,0A20,20,0,1,0,40,20,20.059,20.059,0,0,0,20,0Z"/>
    </g>
  </g>
</svg>
