<svg xmlns="http://www.w3.org/2000/svg" xmlns:xlink="http://www.w3.org/1999/xlink" width="40" height="40" viewBox="0 0 40 40">
  <defs>
    <clipPath id="clip-path">
      <rect id="Rectangle_1" data-name="Rectangle 1" width="40" height="40" transform="translate(1027 220)" stroke="#707070" stroke-width="1"/>
    </clipPath>
  </defs>
  <g id="seta-direita" transform="translate(-1027 -220)" clip-path="url(#clip-path)">
    <g id="seta-direita-2" data-name="seta-direita" transform="translate(1067 260) rotate(180)">
      <path id="Path_3" data-name="Path 3" d="M23.5,32.5,11,20,23.5,7.5,27,11l-9,9,9,9Z"/>
      <path id="Path_4" data-name="Path 4" d="M20,2.5A17.392,17.392,0,0,1,37.5,20,17.392,17.392,0,0,1,20,37.5,17.392,17.392,0,0,1,2.5,20,17.392,17.392,0,0,1,20,2.5ZM20,0A20,20,0,1,0,40,20,20.059,20.059,0,0,0,20,0Z"/>
    </g>
  </g>
</svg>
